<svg width="24" height="24" viewBox="0 0 24 24" fill="none" xmlns="http://www.w3.org/2000/svg">
<path fill-rule="evenodd" clip-rule="evenodd" d="M17.3118 13.6479C19.0203 13.6479 20.4102 15.0308 20.4102 16.7303C20.4102 18.4299 19.0203 19.8128 17.3118 19.8128C15.6023 19.8128 14.2114 18.4299 14.2114 16.7303C14.2114 15.0308 15.6023 13.6479 17.3118 13.6479ZM17.3118 15.1413C16.4257 15.1413 15.7049 15.8542 15.7049 16.7303C15.7049 17.6075 16.4257 18.3193 17.3118 18.3193C18.1969 18.3193 18.9167 17.6075 18.9167 16.7303C18.9167 15.8542 18.1969 15.1413 17.3118 15.1413ZM10.0362 16.0223C10.4484 16.0223 10.7829 16.3568 10.7829 16.769C10.7829 17.1812 10.4484 17.5157 10.0362 17.5157H3.76279C3.35061 17.5157 3.01608 17.1812 3.01608 16.769C3.01608 16.3568 3.35061 16.0223 3.76279 16.0223H10.0362ZM6.08627 3.98242C7.79575 3.98242 9.18564 5.36633 9.18564 7.06586C9.18564 8.76538 7.79575 10.1473 6.08627 10.1473C4.37779 10.1473 2.98691 8.76538 2.98691 7.06586C2.98691 5.36633 4.37779 3.98242 6.08627 3.98242ZM6.08627 5.47585C5.20117 5.47585 4.48034 6.18872 4.48034 7.06586C4.48034 7.942 5.20117 8.65387 6.08627 8.65387C6.97237 8.65387 7.69221 7.942 7.69221 7.06586C7.69221 6.18872 6.97237 5.47585 6.08627 5.47585ZM19.1071 6.37231C19.5193 6.37231 19.8538 6.70684 19.8538 7.11902C19.8538 7.53121 19.5193 7.86574 19.1071 7.86574H12.8347C12.4225 7.86574 12.088 7.53121 12.088 7.11902C12.088 6.70684 12.4225 6.37231 12.8347 6.37231H19.1071Z" fill="white"/>
</svg>
